<svg xmlns="http://www.w3.org/2000/svg" xmlns:xlink="http://www.w3.org/1999/xlink" width="2000" zoomAndPan="magnify" viewBox="0 0 1500 1499.999933" height="2000" preserveAspectRatio="xMidYMid meet" version="1.0"><defs><g/><clipPath id="4eb32c8077"><path d="M 0 17 L 403 17 L 403 255.679688 L 0 255.679688 Z M 0 17 " clip-rule="nonzero"/></clipPath><clipPath id="25b1cd6831"><rect x="0" width="403" y="0" height="239"/></clipPath><clipPath id="7b48a10283"><path d="M 330.832031 43.890625 L 379.210938 43.890625 L 379.210938 92.269531 L 330.832031 92.269531 Z M 330.832031 43.890625 " clip-rule="nonzero"/></clipPath><clipPath id="34ce5154da"><path d="M 355.023438 43.890625 C 341.660156 43.890625 330.832031 54.71875 330.832031 68.078125 C 330.832031 81.4375 341.660156 92.269531 355.023438 92.269531 C 368.382812 92.269531 379.210938 81.4375 379.210938 68.078125 C 379.210938 54.71875 368.382812 43.890625 355.023438 43.890625 Z M 355.023438 43.890625 " clip-rule="nonzero"/></clipPath><clipPath id="88652df343"><path d="M 0.832031 0.890625 L 49.210938 0.890625 L 49.210938 49.269531 L 0.832031 49.269531 Z M 0.832031 0.890625 " clip-rule="nonzero"/></clipPath><clipPath id="4a5924ae6a"><path d="M 25.023438 0.890625 C 11.660156 0.890625 0.832031 11.71875 0.832031 25.078125 C 0.832031 38.4375 11.660156 49.269531 25.023438 49.269531 C 38.382812 49.269531 49.210938 38.4375 49.210938 25.078125 C 49.210938 11.71875 38.382812 0.890625 25.023438 0.890625 Z M 25.023438 0.890625 " clip-rule="nonzero"/></clipPath><clipPath id="4c3c4a476c"><rect x="0" width="50" y="0" height="50"/></clipPath><clipPath id="59db41fec3"><path d="M 368 69 L 404 69 L 404 104 L 368 104 Z M 368 69 " clip-rule="nonzero"/></clipPath><clipPath id="f9e0967e68"><path d="M 362.46875 81.78125 L 390.96875 63.210938 L 409.539062 91.710938 L 381.039062 110.28125 Z M 362.46875 81.78125 " clip-rule="nonzero"/></clipPath><clipPath id="90b9b2b636"><path d="M 376.71875 72.496094 C 368.847656 77.621094 366.625 88.160156 371.753906 96.03125 C 376.878906 103.902344 387.417969 106.125 395.289062 100.996094 C 403.160156 95.867188 405.382812 85.332031 400.253906 77.460938 C 395.125 69.589844 384.589844 67.367188 376.71875 72.496094 Z M 376.71875 72.496094 " clip-rule="nonzero"/></clipPath><clipPath id="779794c060"><path d="M 0 0 L 36 0 L 36 35 L 0 35 Z M 0 0 " clip-rule="nonzero"/></clipPath><clipPath id="3a411a404b"><path d="M -5.53125 12.78125 L 22.96875 -5.789062 L 41.539062 22.710938 L 13.039062 41.28125 Z M -5.53125 12.78125 " clip-rule="nonzero"/></clipPath><clipPath id="ba7a8c3a37"><path d="M 8.71875 3.496094 C 0.847656 8.621094 -1.375 19.160156 3.753906 27.03125 C 8.878906 34.902344 19.417969 37.125 27.289062 31.996094 C 35.160156 26.867188 37.382812 16.332031 32.253906 8.460938 C 27.125 0.589844 16.589844 -1.632812 8.71875 3.496094 Z M 8.71875 3.496094 " clip-rule="nonzero"/></clipPath><clipPath id="49b29c10bf"><rect x="0" width="36" y="0" height="35"/></clipPath><clipPath id="b2231af2db"><path d="M 132.792969 0.378906 L 221.914062 0.378906 L 221.914062 68.078125 L 132.792969 68.078125 Z M 132.792969 0.378906 " clip-rule="nonzero"/></clipPath><clipPath id="048089c362"><path d="M 177.230469 0.378906 C 152.6875 0.378906 132.792969 15.535156 132.792969 34.230469 C 132.792969 52.925781 152.6875 68.078125 177.230469 68.078125 C 201.773438 68.078125 221.667969 52.925781 221.667969 34.230469 C 221.667969 15.535156 201.773438 0.378906 177.230469 0.378906 Z M 177.230469 0.378906 " clip-rule="nonzero"/></clipPath><clipPath id="e2a98aea36"><path d="M 0.792969 0.378906 L 89.761719 0.378906 L 89.761719 68.078125 L 0.792969 68.078125 Z M 0.792969 0.378906 " clip-rule="nonzero"/></clipPath><clipPath id="eaa9b05b15"><path d="M 45.230469 0.378906 C 20.6875 0.378906 0.792969 15.535156 0.792969 34.230469 C 0.792969 52.925781 20.6875 68.078125 45.230469 68.078125 C 69.773438 68.078125 89.667969 52.925781 89.667969 34.230469 C 89.667969 15.535156 69.773438 0.378906 45.230469 0.378906 Z M 45.230469 0.378906 " clip-rule="nonzero"/></clipPath><clipPath id="ade2182012"><rect x="0" width="90" y="0" height="69"/></clipPath><clipPath id="ac04266d1f"><path d="M 132.792969 20.78125 L 178.605469 20.78125 L 178.605469 66.59375 L 132.792969 66.59375 Z M 132.792969 20.78125 " clip-rule="nonzero"/></clipPath><clipPath id="680d1980d4"><path d="M 409.539062 167 L 433 167 L 433 191 L 409.539062 191 Z M 409.539062 167 " clip-rule="nonzero"/></clipPath><clipPath id="0ee5f21ded"><path d="M 442 170 L 454.320312 170 L 454.320312 182 L 442 182 Z M 442 170 " clip-rule="nonzero"/></clipPath><clipPath id="33f8f79622"><path d="M 425 198 L 452 198 L 452 221.941406 L 425 221.941406 Z M 425 198 " clip-rule="nonzero"/></clipPath><clipPath id="99f8ff1726"><rect x="0" width="455" y="0" height="256"/></clipPath><clipPath id="3949d85812"><path d="M 0.0390625 18 L 722.441406 18 L 722.441406 255.679688 L 0.0390625 255.679688 Z M 0.0390625 18 " clip-rule="nonzero"/></clipPath><clipPath id="b83b2df846"><path d="M 399 56 L 528 56 L 528 237.679688 L 399 237.679688 Z M 399 56 " clip-rule="nonzero"/></clipPath><clipPath id="80ee9b8363"><rect x="0" width="723" y="0" height="238"/></clipPath><clipPath id="c4bd73c3c8"><path d="M 308.242188 43.890625 L 356.625 43.890625 L 356.625 92.269531 L 308.242188 92.269531 Z M 308.242188 43.890625 " clip-rule="nonzero"/></clipPath><clipPath id="661fcc9eab"><path d="M 332.433594 43.890625 C 319.074219 43.890625 308.242188 54.71875 308.242188 68.078125 C 308.242188 81.4375 319.074219 92.269531 332.433594 92.269531 C 345.792969 92.269531 356.625 81.4375 356.625 68.078125 C 356.625 54.71875 345.792969 43.890625 332.433594 43.890625 Z M 332.433594 43.890625 " clip-rule="nonzero"/></clipPath><clipPath id="cd23bd0d06"><path d="M 0.242188 0.890625 L 48.625 0.890625 L 48.625 49.269531 L 0.242188 49.269531 Z M 0.242188 0.890625 " clip-rule="nonzero"/></clipPath><clipPath id="55e49f01cf"><path d="M 24.433594 0.890625 C 11.074219 0.890625 0.242188 11.71875 0.242188 25.078125 C 0.242188 38.4375 11.074219 49.269531 24.433594 49.269531 C 37.792969 49.269531 48.625 38.4375 48.625 25.078125 C 48.625 11.71875 37.792969 0.890625 24.433594 0.890625 Z M 24.433594 0.890625 " clip-rule="nonzero"/></clipPath><clipPath id="deffe729c1"><rect x="0" width="49" y="0" height="50"/></clipPath><clipPath id="37ab1b8351"><path d="M 346 69 L 381 69 L 381 104 L 346 104 Z M 346 69 " clip-rule="nonzero"/></clipPath><clipPath id="cdb2116f82"><path d="M 339.878906 81.78125 L 368.382812 63.210938 L 386.949219 91.710938 L 358.449219 110.28125 Z M 339.878906 81.78125 " clip-rule="nonzero"/></clipPath><clipPath id="bd5affba97"><path d="M 354.128906 72.496094 C 346.261719 77.621094 344.035156 88.160156 349.164062 96.03125 C 354.292969 103.902344 364.828125 106.125 372.699219 100.996094 C 380.570312 95.867188 382.792969 85.332031 377.667969 77.460938 C 372.539062 69.589844 362 67.367188 354.128906 72.496094 Z M 354.128906 72.496094 " clip-rule="nonzero"/></clipPath><clipPath id="fb32e8ef6b"><path d="M 0 0 L 35 0 L 35 35 L 0 35 Z M 0 0 " clip-rule="nonzero"/></clipPath><clipPath id="9fbe1c9046"><path d="M -6.121094 12.78125 L 22.382812 -5.789062 L 40.949219 22.710938 L 12.449219 41.28125 Z M -6.121094 12.78125 " clip-rule="nonzero"/></clipPath><clipPath id="63a73701dc"><path d="M 8.128906 3.496094 C 0.261719 8.621094 -1.964844 19.160156 3.164062 27.03125 C 8.292969 34.902344 18.828125 37.125 26.699219 31.996094 C 34.570312 26.867188 36.792969 16.332031 31.667969 8.460938 C 26.539062 0.589844 16 -1.632812 8.128906 3.496094 Z M 8.128906 3.496094 " clip-rule="nonzero"/></clipPath><clipPath id="73ac986e4c"><rect x="0" width="35" y="0" height="35"/></clipPath><clipPath id="4130142546"><path d="M 110.203125 0.378906 L 199.324219 0.378906 L 199.324219 68.078125 L 110.203125 68.078125 Z M 110.203125 0.378906 " clip-rule="nonzero"/></clipPath><clipPath id="611b3b0344"><path d="M 154.640625 0.378906 C 130.101562 0.378906 110.203125 15.535156 110.203125 34.230469 C 110.203125 52.925781 130.101562 68.078125 154.640625 68.078125 C 179.183594 68.078125 199.082031 52.925781 199.082031 34.230469 C 199.082031 15.535156 179.183594 0.378906 154.640625 0.378906 Z M 154.640625 0.378906 " clip-rule="nonzero"/></clipPath><clipPath id="56054754ec"><path d="M 0.203125 0.378906 L 89.238281 0.378906 L 89.238281 68.078125 L 0.203125 68.078125 Z M 0.203125 0.378906 " clip-rule="nonzero"/></clipPath><clipPath id="d9376d5fb1"><path d="M 44.640625 0.378906 C 20.101562 0.378906 0.203125 15.535156 0.203125 34.230469 C 0.203125 52.925781 20.101562 68.078125 44.640625 68.078125 C 69.183594 68.078125 89.082031 52.925781 89.082031 34.230469 C 89.082031 15.535156 69.183594 0.378906 44.640625 0.378906 Z M 44.640625 0.378906 " clip-rule="nonzero"/></clipPath><clipPath id="9ec51b328f"><rect x="0" width="90" y="0" height="69"/></clipPath><clipPath id="57cfda6c9f"><path d="M 90.898438 77.582031 L 100.0625 77.582031 L 100.0625 86.746094 L 90.898438 86.746094 Z M 90.898438 77.582031 " clip-rule="nonzero"/></clipPath><clipPath id="8c68ae61cb"><path d="M 375.226562 170 L 404 170 L 404 200 L 375.226562 200 Z M 375.226562 170 " clip-rule="nonzero"/></clipPath><clipPath id="e1b61a621e"><path d="M 394 209 L 428 209 L 428 236.601562 L 394 236.601562 Z M 394 209 " clip-rule="nonzero"/></clipPath><clipPath id="f45592dd3d"><rect x="0" width="723" y="0" height="256"/></clipPath></defs><rect x="-150" width="1800" fill="#ffffff" y="-149.999993" height="1799.99992" fill-opacity="1"/><rect x="-150" width="1800" fill="#ffffff" y="-149.999993" height="1799.99992" fill-opacity="1"/><g transform="matrix(1, 0, 0, 1, 876, 550)"><g clip-path="url(#99f8ff1726)"><g clip-path="url(#4eb32c8077)"><g transform="matrix(1, 0, 0, 1, 0, 17)"><g clip-path="url(#25b1cd6831)"><g fill="#151f28" fill-opacity="1"><g transform="translate(0.150544, 180.869798)"><g><path d="M 1.234375 -10.984375 C 1.234375 -14.273438 1.5 -17.070312 2.03125 -19.375 C 2.570312 -21.675781 3.289062 -23.976562 4.1875 -26.28125 C 5.09375 -28.582031 6.0625 -31.296875 7.09375 -34.421875 C 8.125 -37.554688 9.128906 -41.507812 10.109375 -46.28125 C 11.097656 -51.050781 11.984375 -57.078125 12.765625 -64.359375 C 13.546875 -71.640625 14.101562 -80.628906 14.4375 -91.328125 C 14.4375 -99.796875 13.878906 -107.585938 12.765625 -114.703125 C 11.660156 -121.816406 10.347656 -128.394531 8.828125 -134.4375 C 7.304688 -140.488281 5.988281 -146.164062 4.875 -151.46875 C 3.757812 -156.78125 3.203125 -161.863281 3.203125 -166.71875 C 3.203125 -169.6875 3.921875 -171.929688 5.359375 -173.453125 C 6.804688 -174.972656 8.578125 -176.039062 10.671875 -176.65625 C 12.773438 -177.269531 14.851562 -177.597656 16.90625 -177.640625 C 18.957031 -177.679688 20.644531 -177.703125 21.96875 -177.703125 L 53.6875 -177.703125 C 55 -177.703125 56.679688 -177.679688 58.734375 -177.640625 C 60.796875 -177.597656 62.875 -177.269531 64.96875 -176.65625 C 67.070312 -176.039062 68.84375 -174.972656 70.28125 -173.453125 C 71.71875 -171.929688 72.4375 -169.6875 72.4375 -166.71875 C 72.4375 -162.113281 71.898438 -157.609375 70.828125 -153.203125 C 69.765625 -148.804688 68.507812 -144.507812 67.0625 -140.3125 C 65.625 -136.113281 64.367188 -132.039062 63.296875 -128.09375 C 62.234375 -124.144531 61.703125 -120.320312 61.703125 -116.625 C 61.703125 -114.476562 61.722656 -113.078125 61.765625 -112.421875 C 61.804688 -111.765625 62.15625 -111.4375 62.8125 -111.4375 C 63.46875 -111.4375 64.515625 -112.132812 65.953125 -113.53125 C 67.398438 -114.925781 69.316406 -116.53125 71.703125 -118.34375 C 74.085938 -120.15625 77.046875 -121.757812 80.578125 -123.15625 C 84.117188 -124.550781 88.273438 -125.25 93.046875 -125.25 C 104.816406 -125.25 114.113281 -119.941406 120.9375 -109.328125 C 127.769531 -98.722656 131.1875 -82.847656 131.1875 -61.703125 C 131.1875 -48.046875 129.25 -36.484375 125.375 -27.015625 C 121.507812 -17.554688 116.117188 -10.378906 109.203125 -5.484375 C 102.296875 -0.597656 94.238281 1.84375 85.03125 1.84375 C 80.5 1.84375 76.671875 1.597656 73.546875 1.109375 C 70.421875 0.617188 67.582031 0.0234375 65.03125 -0.671875 C 62.476562 -1.378906 59.820312 -1.976562 57.0625 -2.46875 C 54.3125 -2.957031 51.003906 -3.203125 47.140625 -3.203125 C 43.597656 -3.203125 40.347656 -2.9375 37.390625 -2.40625 C 34.429688 -1.875 31.570312 -1.335938 28.8125 -0.796875 C 26.0625 -0.265625 23.117188 0 19.984375 0 C 18.671875 0 16.984375 -0.0195312 14.921875 -0.0625 C 12.867188 -0.101562 10.789062 -0.429688 8.6875 -1.046875 C 6.59375 -1.660156 4.828125 -2.726562 3.390625 -4.25 C 1.953125 -5.78125 1.234375 -8.023438 1.234375 -10.984375 Z M 61.703125 -61.453125 C 61.703125 -52.242188 62.707031 -44.800781 64.71875 -39.125 C 66.738281 -33.445312 69.394531 -30.609375 72.6875 -30.609375 C 75.976562 -30.609375 78.628906 -33.445312 80.640625 -39.125 C 82.660156 -44.800781 83.671875 -52.242188 83.671875 -61.453125 C 83.671875 -70.753906 82.660156 -78.242188 80.640625 -83.921875 C 78.628906 -89.597656 75.976562 -92.4375 72.6875 -92.4375 C 69.394531 -92.4375 66.738281 -89.597656 64.71875 -83.921875 C 62.707031 -78.242188 61.703125 -70.753906 61.703125 -61.453125 Z M 61.703125 -61.453125 "/></g></g></g><g fill="#151f28" fill-opacity="1"><g transform="translate(134.408017, 180.869798)"><g><path d="M 13.328125 -61.703125 C 13.328125 -67.128906 12.914062 -71.734375 12.09375 -75.515625 C 11.269531 -79.304688 10.257812 -82.554688 9.0625 -85.265625 C 7.875 -87.984375 6.679688 -90.410156 5.484375 -92.546875 C 4.296875 -94.691406 3.289062 -96.8125 2.46875 -98.90625 C 1.644531 -101.007812 1.234375 -103.375 1.234375 -106 C 1.234375 -108.882812 2.382812 -111.128906 4.6875 -112.734375 C 6.988281 -114.335938 9.90625 -115.648438 13.4375 -116.671875 C 16.976562 -117.703125 20.601562 -118.710938 24.3125 -119.703125 C 25.789062 -120.117188 27.660156 -120.632812 29.921875 -121.25 C 32.179688 -121.863281 34.484375 -122.476562 36.828125 -123.09375 C 39.179688 -123.707031 41.28125 -124.21875 43.125 -124.625 C 44.976562 -125.039062 46.316406 -125.25 47.140625 -125.25 C 49.191406 -125.25 51.222656 -124.507812 53.234375 -123.03125 C 55.253906 -121.550781 56.921875 -118.976562 58.234375 -115.3125 C 59.554688 -111.65625 60.21875 -106.535156 60.21875 -99.953125 C 60.21875 -95.597656 60.238281 -91.035156 60.28125 -86.265625 C 60.320312 -81.492188 60.34375 -76.96875 60.34375 -72.6875 C 60.34375 -68.40625 60.34375 -64.742188 60.34375 -61.703125 C 60.34375 -56.441406 60.894531 -51.34375 62 -46.40625 C 63.113281 -41.46875 64.429688 -36.816406 65.953125 -32.453125 C 67.484375 -28.097656 68.800781 -24.109375 69.90625 -20.484375 C 71.019531 -16.867188 71.578125 -13.703125 71.578125 -10.984375 C 71.578125 -8.023438 70.957031 -5.78125 69.71875 -4.25 C 68.488281 -2.726562 66.945312 -1.660156 65.09375 -1.046875 C 63.238281 -0.429688 61.382812 -0.101562 59.53125 -0.0625 C 57.6875 -0.0195312 56.109375 0 54.796875 0 L 19 0 C 17.6875 0 16.101562 -0.0195312 14.25 -0.0625 C 12.40625 -0.101562 10.554688 -0.429688 8.703125 -1.046875 C 6.847656 -1.660156 5.300781 -2.726562 4.0625 -4.25 C 2.832031 -5.78125 2.21875 -8.023438 2.21875 -10.984375 C 2.21875 -14.273438 2.769531 -17.707031 3.875 -21.28125 C 4.988281 -24.863281 6.285156 -28.710938 7.765625 -32.828125 C 9.253906 -36.941406 10.550781 -41.363281 11.65625 -46.09375 C 12.769531 -50.820312 13.328125 -56.023438 13.328125 -61.703125 Z M 36.53125 -132.65625 C 35.132812 -132.65625 33.140625 -133.191406 30.546875 -134.265625 C 27.953125 -135.335938 25.191406 -136.816406 22.265625 -138.703125 C 19.347656 -140.597656 16.550781 -142.800781 13.875 -145.3125 C 11.207031 -147.820312 9.03125 -150.578125 7.34375 -153.578125 C 5.65625 -156.578125 4.8125 -159.722656 4.8125 -163.015625 C 4.8125 -166.304688 5.53125 -169.1875 6.96875 -171.65625 C 8.40625 -174.125 10.273438 -176.054688 12.578125 -177.453125 C 14.890625 -178.859375 17.398438 -179.5625 20.109375 -179.5625 C 23.898438 -179.5625 27.128906 -178.488281 29.796875 -176.34375 C 32.472656 -174.207031 34.71875 -172.03125 36.53125 -169.8125 C 38.414062 -172.03125 40.695312 -174.207031 43.375 -176.34375 C 46.050781 -178.488281 49.28125 -179.5625 53.0625 -179.5625 C 55.78125 -179.5625 58.3125 -178.859375 60.65625 -177.453125 C 63 -176.054688 64.867188 -174.125 66.265625 -171.65625 C 67.660156 -169.1875 68.359375 -166.304688 68.359375 -163.015625 C 68.359375 -159.722656 67.515625 -156.578125 65.828125 -153.578125 C 64.148438 -150.578125 61.972656 -147.820312 59.296875 -145.3125 C 56.617188 -142.800781 53.800781 -140.597656 50.84375 -138.703125 C 47.882812 -136.816406 45.128906 -135.335938 42.578125 -134.265625 C 40.023438 -133.191406 38.007812 -132.65625 36.53125 -132.65625 Z M 36.53125 -132.65625 "/></g></g></g><g fill="#151f28" fill-opacity="1"><g transform="translate(207.21308, 180.869798)"><g><path d="M 42.328125 1.84375 C 34.671875 1.84375 27.738281 0.222656 21.53125 -3.015625 C 15.320312 -6.265625 10.382812 -10.992188 6.71875 -17.203125 C 3.0625 -23.421875 1.234375 -30.929688 1.234375 -39.734375 C 1.234375 -45.578125 1.972656 -51.171875 3.453125 -56.515625 C 4.929688 -61.867188 6.78125 -66.929688 9 -71.703125 C 11.226562 -76.472656 13.429688 -80.914062 15.609375 -85.03125 C 17.785156 -89.144531 19.613281 -92.90625 21.09375 -96.3125 C 22.582031 -99.726562 23.328125 -102.796875 23.328125 -105.515625 C 23.328125 -107.648438 23.035156 -109.085938 22.453125 -109.828125 C 21.878906 -110.566406 21.019531 -110.9375 19.875 -110.9375 C 18.800781 -110.9375 17.484375 -110.726562 15.921875 -110.3125 C 14.359375 -109.90625 12.671875 -109.703125 10.859375 -109.703125 C 7.398438 -109.703125 4.953125 -110.421875 3.515625 -111.859375 C 2.078125 -113.304688 1.359375 -115.304688 1.359375 -117.859375 C 1.359375 -120.984375 3.332031 -124.722656 7.28125 -129.078125 C 11.226562 -133.441406 16.328125 -138.503906 22.578125 -144.265625 C 26.285156 -147.710938 29.84375 -151.125 33.25 -154.5 C 36.664062 -157.875 39.710938 -160.671875 42.390625 -162.890625 C 45.066406 -165.117188 47.101562 -166.234375 48.5 -166.234375 C 50.144531 -166.234375 51.359375 -165.675781 52.140625 -164.5625 C 52.921875 -163.445312 53.453125 -162.066406 53.734375 -160.421875 C 54.023438 -158.773438 54.171875 -157.210938 54.171875 -155.734375 L 54.171875 -123.40625 L 59.234375 -123.40625 C 61.210938 -123.40625 62.816406 -122.785156 64.046875 -121.546875 C 65.285156 -120.316406 65.90625 -118.71875 65.90625 -116.75 L 65.90625 -116.375 C 65.90625 -114.394531 65.285156 -112.785156 64.046875 -111.546875 C 62.816406 -110.316406 61.210938 -109.703125 59.234375 -109.703125 L 54.171875 -109.703125 L 54.171875 -61.703125 C 54.171875 -54.128906 54.742188 -47.957031 55.890625 -43.1875 C 57.046875 -38.414062 58.488281 -34.609375 60.21875 -31.765625 C 61.945312 -28.929688 63.675781 -26.648438 65.40625 -24.921875 C 67.132812 -23.203125 68.570312 -21.660156 69.71875 -20.296875 C 70.875 -18.941406 71.453125 -17.273438 71.453125 -15.296875 C 71.453125 -12.585938 70.566406 -10.160156 68.796875 -8.015625 C 67.023438 -5.878906 64.695312 -4.070312 61.8125 -2.59375 C 58.9375 -1.113281 55.789062 -0.00390625 52.375 0.734375 C 48.96875 1.472656 45.617188 1.84375 42.328125 1.84375 Z M 42.328125 1.84375 "/></g></g></g><g fill="#151f28" fill-opacity="1"><g transform="translate(279.894752, 180.869798)"><g><path d="M 3.078125 -61.703125 C 3.078125 -69.515625 4.414062 -77.207031 7.09375 -84.78125 C 9.769531 -92.351562 13.84375 -99.179688 19.3125 -105.265625 C 24.78125 -111.347656 31.691406 -116.195312 40.046875 -119.8125 C 48.398438 -123.4375 58.289062 -125.25 69.71875 -125.25 C 76.0625 -125.25 82.148438 -124.445312 87.984375 -122.84375 C 93.828125 -121.238281 99.03125 -118.8125 103.59375 -115.5625 C 108.164062 -112.320312 111.785156 -108.273438 114.453125 -103.421875 C 117.128906 -98.566406 118.46875 -92.890625 118.46875 -86.390625 C 118.46875 -79.222656 117.375 -73.007812 115.1875 -67.75 C 113.007812 -62.488281 110.09375 -58.046875 106.4375 -54.421875 C 102.78125 -50.804688 98.726562 -47.820312 94.28125 -45.46875 C 89.84375 -43.125 85.359375 -41.253906 80.828125 -39.859375 C 76.546875 -38.546875 72.78125 -37.925781 69.53125 -38 C 66.289062 -38.082031 63.722656 -38.125 61.828125 -38.125 C 60.753906 -38.125 59.953125 -38.019531 59.421875 -37.8125 C 58.890625 -37.613281 58.625 -37.144531 58.625 -36.40625 C 58.625 -35.09375 59.34375 -34.023438 60.78125 -33.203125 C 62.21875 -32.378906 63.941406 -31.78125 65.953125 -31.40625 C 67.972656 -31.03125 69.804688 -30.84375 71.453125 -30.84375 C 75.890625 -30.84375 79.628906 -31.398438 82.671875 -32.515625 C 85.722656 -33.628906 88.398438 -34.882812 90.703125 -36.28125 C 93.003906 -37.675781 95.222656 -38.929688 97.359375 -40.046875 C 99.503906 -41.160156 101.851562 -41.71875 104.40625 -41.71875 C 107.195312 -41.71875 109.597656 -41.035156 111.609375 -39.671875 C 113.628906 -38.316406 115.273438 -36.585938 116.546875 -34.484375 C 117.828125 -32.390625 118.773438 -30.234375 119.390625 -28.015625 C 120.015625 -25.796875 120.328125 -23.78125 120.328125 -21.96875 C 120.328125 -18.257812 118.535156 -14.578125 114.953125 -10.921875 C 111.367188 -7.265625 105.851562 -4.222656 98.40625 -1.796875 C 90.96875 0.628906 81.40625 1.84375 69.71875 1.84375 C 58.863281 1.84375 49.300781 0.0546875 41.03125 -3.515625 C 32.757812 -7.097656 25.804688 -11.929688 20.171875 -18.015625 C 14.535156 -24.109375 10.273438 -30.9375 7.390625 -38.5 C 4.515625 -46.070312 3.078125 -53.804688 3.078125 -61.703125 Z M 50.71875 -74.78125 C 48.664062 -69.519531 47.925781 -65.265625 48.5 -62.015625 C 49.070312 -58.765625 50.878906 -57.140625 53.921875 -57.140625 C 57.054688 -57.140625 60.207031 -58.765625 63.375 -62.015625 C 66.539062 -65.265625 69.148438 -69.519531 71.203125 -74.78125 C 73.335938 -80.132812 74.097656 -84.429688 73.484375 -87.671875 C 72.867188 -90.921875 71 -92.546875 67.875 -92.546875 C 64.832031 -92.546875 61.742188 -90.921875 58.609375 -87.671875 C 55.484375 -84.429688 52.851562 -80.132812 50.71875 -74.78125 Z M 50.71875 -74.78125 "/></g></g></g></g></g></g><g clip-path="url(#7b48a10283)"><g clip-path="url(#34ce5154da)"><g transform="matrix(1, 0, 0, 1, 330, 43)"><g clip-path="url(#4c3c4a476c)"><g clip-path="url(#88652df343)"><g clip-path="url(#4a5924ae6a)"><path fill="#ffffff" d="M 0.832031 0.890625 L 49.210938 0.890625 L 49.210938 49.269531 L 0.832031 49.269531 Z M 0.832031 0.890625 " fill-opacity="1" fill-rule="nonzero"/></g></g></g></g></g></g><g clip-path="url(#59db41fec3)"><g clip-path="url(#f9e0967e68)"><g clip-path="url(#90b9b2b636)"><g transform="matrix(1, 0, 0, 1, 368, 69)"><g clip-path="url(#49b29c10bf)"><g clip-path="url(#779794c060)"><g clip-path="url(#3a411a404b)"><g clip-path="url(#ba7a8c3a37)"><path fill="#ffffff" d="M -5.53125 12.78125 L 22.96875 -5.789062 L 41.539062 22.710938 L 13.039062 41.28125 Z M -5.53125 12.78125 " fill-opacity="1" fill-rule="nonzero"/></g></g></g></g></g></g></g></g><g clip-path="url(#b2231af2db)"><g clip-path="url(#048089c362)"><g transform="matrix(1, 0, 0, 1, 132, 0.000000000000113687)"><g clip-path="url(#ade2182012)"><g clip-path="url(#e2a98aea36)"><g clip-path="url(#eaa9b05b15)"><path fill="#ffffff" d="M 0.792969 0.378906 L 89.648438 0.378906 L 89.648438 68.078125 L 0.792969 68.078125 Z M 0.792969 0.378906 " fill-opacity="1" fill-rule="nonzero"/></g></g></g></g></g></g><g clip-path="url(#ac04266d1f)"><path fill="#000000" d="M 178.367188 48.660156 C 178.445312 48.289062 178.527344 47.898438 178.582031 47.511719 C 178.421875 47.519531 178.28125 47.535156 178.128906 47.535156 C 174.832031 47.535156 172.148438 44.914062 172.148438 41.6875 C 172.148438 41.460938 172.164062 41.21875 172.199219 41.003906 C 168.425781 40.683594 165.472656 37.589844 165.472656 33.8125 C 165.472656 32.703125 165.726562 31.65625 166.1875 30.722656 C 164.105469 29.816406 162.652344 27.769531 162.652344 25.402344 C 162.652344 24.464844 162.867188 23.578125 163.28125 22.804688 C 162.488281 22.539062 161.675781 22.316406 160.851562 22.136719 C 160.859375 22.097656 160.859375 22.058594 160.859375 22.019531 C 160.875 21.632812 160.613281 21.296875 160.230469 21.21875 C 158.835938 20.941406 157.390625 20.800781 155.816406 20.800781 C 151.910156 20.800781 148.027344 21.75 144.597656 23.539062 C 144.25 23.726562 144.089844 24.128906 144.226562 24.496094 C 144.242188 24.535156 144.257812 24.570312 144.273438 24.609375 C 137.40625 28.488281 132.792969 35.75 132.792969 44.074219 C 132.792969 56.503906 143.097656 66.574219 155.816406 66.574219 C 166.941406 66.574219 176.199219 58.886719 178.367188 48.660156 Z M 178.367188 48.660156 " fill-opacity="1" fill-rule="nonzero"/></g><g clip-path="url(#680d1980d4)"><path fill="#000000" d="M 409.539062 184.097656 C 409.539062 184.097656 411.953125 195.867188 429.648438 186.914062 C 429.648438 186.914062 437.339844 181.253906 426.988281 173.761719 C 426.988281 173.761719 413.222656 154.148438 409.539062 184.097656 Z M 409.539062 184.097656 " fill-opacity="1" fill-rule="nonzero"/></g><g clip-path="url(#0ee5f21ded)"><path fill="#000000" d="M 442.875 178.5 C 442.875 178.5 444.054688 184.261719 452.726562 179.875 C 452.726562 179.875 456.5 177.097656 451.429688 173.425781 C 451.429688 173.425781 444.683594 163.820312 442.875 178.5 Z M 442.875 178.5 " fill-opacity="1" fill-rule="nonzero"/></g><g clip-path="url(#33f8f79622)"><path fill="#000000" d="M 438.1875 198.410156 C 438.1875 198.410156 418.386719 204.84375 427.90625 211.820312 C 437.40625 218.789062 442.1875 221.25 442.1875 221.25 C 442.1875 221.25 458.042969 199.1875 448.109375 198.800781 C 438.1875 198.410156 438.1875 198.410156 438.1875 198.410156 Z M 438.1875 198.410156 " fill-opacity="1" fill-rule="nonzero"/></g></g></g><g transform="matrix(1, 0, 0, 1, 131, 550)"><g clip-path="url(#f45592dd3d)"><g clip-path="url(#3949d85812)"><g transform="matrix(1, 0, 0, 1, -0.000000000000028422, 18)"><g clip-path="url(#80ee9b8363)"><g fill="#316428" fill-opacity="1"><g transform="translate(0.578308, 179.869798)"><g><path d="M 2.46875 -10.984375 C 2.46875 -15.179688 2.835938 -19.023438 3.578125 -22.515625 C 4.316406 -26.015625 5.238281 -29.675781 6.34375 -33.5 C 7.457031 -37.332031 8.59375 -41.773438 9.75 -46.828125 C 10.90625 -51.890625 11.851562 -58 12.59375 -65.15625 C 13.332031 -72.3125 13.703125 -81.035156 13.703125 -91.328125 C 13.703125 -99.878906 13.429688 -107.257812 12.890625 -113.46875 C 12.359375 -119.6875 11.660156 -125.015625 10.796875 -129.453125 C 9.929688 -133.890625 9.023438 -137.753906 8.078125 -141.046875 C 7.128906 -144.335938 6.222656 -147.320312 5.359375 -150 C 4.503906 -152.675781 3.804688 -155.328125 3.265625 -157.953125 C 2.734375 -160.585938 2.46875 -163.507812 2.46875 -166.71875 C 2.46875 -169.6875 3.1875 -171.929688 4.625 -173.453125 C 6.0625 -174.972656 7.828125 -176.039062 9.921875 -176.65625 C 12.023438 -177.269531 14.101562 -177.597656 16.15625 -177.640625 C 18.21875 -177.679688 19.90625 -177.703125 21.21875 -177.703125 L 91.4375 -177.703125 C 99.914062 -177.703125 107.425781 -175.992188 113.96875 -172.578125 C 120.507812 -169.171875 125.648438 -164.378906 129.390625 -158.203125 C 133.128906 -152.035156 135 -144.835938 135 -136.609375 C 135 -133.066406 134.523438 -129.445312 133.578125 -125.75 C 132.640625 -122.050781 131.078125 -118.492188 128.890625 -115.078125 C 126.710938 -111.660156 123.832031 -108.613281 120.25 -105.9375 C 116.675781 -103.269531 112.257812 -101.234375 107 -99.828125 C 104.9375 -99.253906 103.90625 -98.472656 103.90625 -97.484375 C 103.90625 -96.828125 104.726562 -96.128906 106.375 -95.390625 C 108.019531 -94.648438 110.117188 -93.722656 112.671875 -92.609375 C 115.222656 -91.503906 117.957031 -89.941406 120.875 -87.921875 C 123.789062 -85.910156 126.523438 -83.300781 129.078125 -80.09375 C 131.628906 -76.882812 133.726562 -72.851562 135.375 -68 C 137.019531 -63.144531 137.84375 -57.21875 137.84375 -50.21875 C 137.84375 -45.945312 137.242188 -41.484375 136.046875 -36.828125 C 134.859375 -32.179688 132.96875 -27.675781 130.375 -23.3125 C 127.78125 -18.957031 124.34375 -15.007812 120.0625 -11.46875 C 115.789062 -7.9375 110.566406 -5.140625 104.390625 -3.078125 C 98.222656 -1.023438 90.988281 0 82.6875 0 L 19.25 0 C 17.9375 0 16.351562 -0.0195312 14.5 -0.0625 C 12.644531 -0.101562 10.789062 -0.429688 8.9375 -1.046875 C 7.09375 -1.660156 5.550781 -2.726562 4.3125 -4.25 C 3.082031 -5.78125 2.46875 -8.023438 2.46875 -10.984375 Z M 60.34375 -44.671875 C 60.34375 -41.128906 61 -38.757812 62.3125 -37.5625 C 63.632812 -36.375 65.445312 -35.78125 67.75 -35.78125 C 71.78125 -35.78125 75.070312 -36.5625 77.625 -38.125 C 80.175781 -39.695312 82.171875 -41.675781 83.609375 -44.0625 C 85.046875 -46.445312 86.050781 -48.910156 86.625 -51.453125 C 87.207031 -54.003906 87.5 -56.269531 87.5 -58.25 C 87.5 -60.21875 87.207031 -62.5 86.625 -65.09375 C 86.050781 -67.6875 85.046875 -70.175781 83.609375 -72.5625 C 82.171875 -74.945312 80.175781 -76.921875 77.625 -78.484375 C 75.070312 -80.046875 71.78125 -80.828125 67.75 -80.828125 C 65.445312 -80.828125 63.632812 -80.25 62.3125 -79.09375 C 61 -77.945312 60.34375 -75.566406 60.34375 -71.953125 C 60.34375 -71.128906 60.363281 -69.789062 60.40625 -67.9375 C 60.445312 -66.082031 60.488281 -64.226562 60.53125 -62.375 C 60.570312 -60.53125 60.59375 -59.15625 60.59375 -58.25 C 60.59375 -57.425781 60.570312 -56.085938 60.53125 -54.234375 C 60.488281 -52.378906 60.445312 -50.546875 60.40625 -48.734375 C 60.363281 -46.929688 60.34375 -45.578125 60.34375 -44.671875 Z M 60.34375 -116.125 C 60.34375 -113.570312 61 -111.863281 62.3125 -111 C 63.632812 -110.132812 65.445312 -109.703125 67.75 -109.703125 C 71.78125 -109.703125 75.070312 -110.257812 77.625 -111.375 C 80.175781 -112.488281 82.171875 -113.90625 83.609375 -115.625 C 85.046875 -117.351562 86.050781 -119.125 86.625 -120.9375 C 87.207031 -122.75 87.5 -124.394531 87.5 -125.875 C 87.5 -127.269531 87.207031 -128.894531 86.625 -130.75 C 86.050781 -132.601562 85.046875 -134.390625 83.609375 -136.109375 C 82.171875 -137.835938 80.175781 -139.257812 77.625 -140.375 C 75.070312 -141.488281 71.78125 -142.046875 67.75 -142.046875 C 65.445312 -142.046875 63.632812 -141.613281 62.3125 -140.75 C 61 -139.882812 60.34375 -138.175781 60.34375 -135.625 Z M 60.34375 -116.125 "/></g></g></g><g fill="#316428" fill-opacity="1"><g transform="translate(139.031319, 179.869798)"><g><path d="M 1.234375 -38.75 C 1.234375 -43.1875 1.5 -46.96875 2.03125 -50.09375 C 2.570312 -53.226562 3.171875 -56.109375 3.828125 -58.734375 C 4.484375 -61.367188 5.078125 -64.0625 5.609375 -66.8125 C 6.148438 -69.570312 6.421875 -72.804688 6.421875 -76.515625 C 6.421875 -80.128906 6.171875 -83.375 5.671875 -86.25 C 5.179688 -89.132812 4.585938 -91.875 3.890625 -94.46875 C 3.191406 -97.0625 2.59375 -99.753906 2.09375 -102.546875 C 1.601562 -105.347656 1.359375 -108.472656 1.359375 -111.921875 C 1.359375 -114.890625 2.140625 -117.21875 3.703125 -118.90625 C 5.265625 -120.59375 7.03125 -121.765625 9 -122.421875 C 10.976562 -123.078125 12.546875 -123.40625 13.703125 -123.40625 L 38.625 -123.40625 C 42.082031 -123.40625 44.921875 -122.351562 47.140625 -120.25 C 49.359375 -118.15625 51.082031 -115.484375 52.3125 -112.234375 C 53.550781 -108.984375 54.394531 -105.523438 54.84375 -101.859375 C 55.300781 -98.203125 55.53125 -94.8125 55.53125 -91.6875 C 55.53125 -85.4375 55.078125 -79.84375 54.171875 -74.90625 C 53.265625 -69.96875 52.210938 -65.546875 51.015625 -61.640625 C 49.828125 -57.734375 48.78125 -54.21875 47.875 -51.09375 C 46.976562 -47.96875 46.53125 -45.046875 46.53125 -42.328125 C 46.53125 -39.453125 47.0625 -36.800781 48.125 -34.375 C 49.195312 -31.945312 50.925781 -30.734375 53.3125 -30.734375 C 56.101562 -30.734375 58.488281 -31.925781 60.46875 -34.3125 C 62.445312 -36.695312 64.050781 -39.820312 65.28125 -43.6875 C 66.519531 -47.550781 67.425781 -51.703125 68 -56.140625 C 68.570312 -60.585938 68.859375 -64.910156 68.859375 -69.109375 C 68.859375 -74.617188 68.648438 -79.453125 68.234375 -83.609375 C 67.828125 -87.765625 67.351562 -91.46875 66.8125 -94.71875 C 66.28125 -97.96875 65.804688 -101.007812 65.390625 -103.84375 C 64.984375 -106.6875 64.78125 -109.546875 64.78125 -112.421875 C 64.78125 -115.378906 65.359375 -117.617188 66.515625 -119.140625 C 67.671875 -120.671875 69.109375 -121.742188 70.828125 -122.359375 C 72.554688 -122.972656 74.328125 -123.300781 76.140625 -123.34375 C 77.953125 -123.382812 79.515625 -123.40625 80.828125 -123.40625 L 107.484375 -123.40625 C 108.804688 -123.40625 110.492188 -123.382812 112.546875 -123.34375 C 114.597656 -123.300781 116.671875 -122.972656 118.765625 -122.359375 C 120.867188 -121.742188 122.640625 -120.671875 124.078125 -119.140625 C 125.523438 -117.617188 126.25 -115.378906 126.25 -112.421875 C 126.25 -109.546875 125.691406 -106.316406 124.578125 -102.734375 C 123.460938 -99.160156 122.1875 -95.128906 120.75 -90.640625 C 119.3125 -86.160156 118.035156 -81.140625 116.921875 -75.578125 C 115.816406 -70.023438 115.265625 -63.796875 115.265625 -56.890625 C 115.265625 -51.378906 115.816406 -46.421875 116.921875 -42.015625 C 118.035156 -37.617188 119.351562 -33.609375 120.875 -29.984375 C 122.394531 -26.367188 123.707031 -23.015625 124.8125 -19.921875 C 125.925781 -16.835938 126.484375 -13.859375 126.484375 -10.984375 C 126.484375 -8.023438 125.867188 -5.78125 124.640625 -4.25 C 123.410156 -2.726562 121.867188 -1.660156 120.015625 -1.046875 C 118.160156 -0.429688 116.304688 -0.101562 114.453125 -0.0625 C 112.609375 -0.0195312 111.023438 0 109.703125 0 L 87 0 C 82.476562 0 78.878906 -0.738281 76.203125 -2.21875 C 73.523438 -3.695312 71.488281 -6.125 70.09375 -9.5 C 69.101562 -7.601562 67.109375 -5.789062 64.109375 -4.0625 C 61.109375 -2.34375 57.710938 -0.929688 53.921875 0.171875 C 50.140625 1.285156 46.5625 1.84375 43.1875 1.84375 C 32.738281 1.84375 24.445312 0.0976562 18.3125 -3.390625 C 12.1875 -6.890625 7.804688 -11.679688 5.171875 -17.765625 C 2.546875 -23.859375 1.234375 -30.851562 1.234375 -38.75 Z M 1.234375 -38.75 "/></g></g></g><g fill="#316428" fill-opacity="1"><g transform="translate(266.74868, 179.869798)"><g><path d="M 49.234375 1.84375 C 40.023438 1.84375 31.960938 -0.597656 25.046875 -5.484375 C 18.140625 -10.378906 12.75 -17.554688 8.875 -27.015625 C 5.007812 -36.484375 3.078125 -48.046875 3.078125 -61.703125 C 3.078125 -82.847656 6.507812 -98.722656 13.375 -109.328125 C 20.25 -119.941406 29.53125 -125.25 41.21875 -125.25 C 46.070312 -125.25 50.242188 -124.550781 53.734375 -123.15625 C 57.234375 -121.757812 60.175781 -120.15625 62.5625 -118.34375 C 64.945312 -116.53125 66.859375 -114.925781 68.296875 -113.53125 C 69.742188 -112.132812 70.796875 -111.4375 71.453125 -111.4375 C 72.109375 -111.4375 72.457031 -111.765625 72.5 -112.421875 C 72.539062 -113.078125 72.5625 -114.476562 72.5625 -116.625 C 72.5625 -120.320312 72.023438 -124.144531 70.953125 -128.09375 C 69.890625 -132.039062 68.65625 -136.113281 67.25 -140.3125 C 65.851562 -144.507812 64.617188 -148.804688 63.546875 -153.203125 C 62.484375 -157.609375 61.953125 -162.113281 61.953125 -166.71875 C 61.953125 -169.6875 62.671875 -171.929688 64.109375 -173.453125 C 65.546875 -174.972656 67.3125 -176.039062 69.40625 -176.65625 C 71.507812 -177.269531 73.585938 -177.597656 75.640625 -177.640625 C 77.703125 -177.679688 79.390625 -177.703125 80.703125 -177.703125 L 110.078125 -177.703125 C 111.390625 -177.703125 113.070312 -177.679688 115.125 -177.640625 C 117.1875 -177.597656 119.265625 -177.269531 121.359375 -176.65625 C 123.460938 -176.039062 125.234375 -174.972656 126.671875 -173.453125 C 128.117188 -171.929688 128.84375 -169.6875 128.84375 -166.71875 C 128.84375 -161.863281 128.285156 -156.78125 127.171875 -151.46875 C 126.054688 -146.164062 124.738281 -140.488281 123.21875 -134.4375 C 121.695312 -128.394531 120.378906 -121.816406 119.265625 -114.703125 C 118.160156 -107.585938 117.609375 -99.796875 117.609375 -91.328125 C 117.609375 -80.628906 117.875 -71.640625 118.40625 -64.359375 C 118.9375 -57.078125 119.632812 -51.050781 120.5 -46.28125 C 121.363281 -41.507812 122.269531 -37.554688 123.21875 -34.421875 C 124.164062 -31.296875 125.070312 -28.582031 125.9375 -26.28125 C 126.800781 -23.976562 127.5 -21.675781 128.03125 -19.375 C 128.570312 -17.070312 128.84375 -14.273438 128.84375 -10.984375 C 128.84375 -8.023438 128.140625 -5.78125 126.734375 -4.25 C 125.335938 -2.726562 123.648438 -1.660156 121.671875 -1.046875 C 119.703125 -0.429688 117.8125 -0.101562 116 -0.0625 C 114.1875 -0.0195312 112.867188 0 112.046875 0 C 109.003906 0 106.269531 -0.265625 103.84375 -0.796875 C 101.414062 -1.335938 98.925781 -1.875 96.375 -2.40625 C 93.820312 -2.9375 90.738281 -3.203125 87.125 -3.203125 C 83.34375 -3.203125 80.050781 -2.957031 77.25 -2.46875 C 74.457031 -1.976562 71.785156 -1.378906 69.234375 -0.671875 C 66.679688 0.0234375 63.84375 0.617188 60.71875 1.109375 C 57.59375 1.597656 53.765625 1.84375 49.234375 1.84375 Z M 50.59375 -61.453125 C 50.59375 -52.242188 51.597656 -44.800781 53.609375 -39.125 C 55.628906 -33.445312 58.285156 -30.609375 61.578125 -30.609375 C 64.867188 -30.609375 67.519531 -33.445312 69.53125 -39.125 C 71.550781 -44.800781 72.5625 -52.242188 72.5625 -61.453125 C 72.5625 -70.753906 71.550781 -78.242188 69.53125 -83.921875 C 67.519531 -89.597656 64.867188 -92.4375 61.578125 -92.4375 C 58.285156 -92.4375 55.628906 -89.597656 53.609375 -83.921875 C 51.597656 -78.242188 50.59375 -70.753906 50.59375 -61.453125 Z M 50.59375 -61.453125 "/></g></g></g><g clip-path="url(#b83b2df846)"><g fill="#316428" fill-opacity="1"><g transform="translate(396.810631, 179.869798)"><g><path d="M 58 57.625 C 51.414062 57.625 44.875 56.84375 38.375 55.28125 C 31.875 53.71875 25.96875 51.515625 20.65625 48.671875 C 15.351562 45.835938 11.097656 42.53125 7.890625 38.75 C 4.679688 34.96875 3.078125 30.8125 3.078125 26.28125 C 3.078125 22.332031 3.941406 18.484375 5.671875 14.734375 C 7.398438 10.992188 9.742188 7.910156 12.703125 5.484375 C 15.671875 3.054688 18.960938 1.84375 22.578125 1.84375 C 24.878906 1.84375 26.976562 2.273438 28.875 3.140625 C 30.769531 4.003906 32.679688 5.050781 34.609375 6.28125 C 36.546875 7.519531 38.707031 8.773438 41.09375 10.046875 C 43.476562 11.328125 46.316406 12.398438 49.609375 13.265625 C 52.898438 14.128906 56.890625 14.5625 61.578125 14.5625 C 63.710938 14.5625 65.726562 14.023438 67.625 12.953125 C 69.519531 11.890625 71.082031 10.492188 72.3125 8.765625 C 73.550781 7.035156 74.207031 5.160156 74.28125 3.140625 C 74.363281 1.128906 73.585938 -0.863281 71.953125 -2.84375 C 71.046875 -1.769531 69.4375 -0.863281 67.125 -0.125 C 64.820312 0.613281 62.25 1.144531 59.40625 1.46875 C 56.570312 1.800781 53.84375 1.96875 51.21875 1.96875 C 43.5625 1.96875 36.769531 0.304688 30.84375 -3.015625 C 24.925781 -6.347656 19.929688 -10.9375 15.859375 -16.78125 C 11.785156 -22.625 8.71875 -29.367188 6.65625 -37.015625 C 4.601562 -44.671875 3.578125 -52.859375 3.578125 -61.578125 C 3.578125 -70.128906 4.5625 -77.613281 6.53125 -84.03125 C 8.507812 -90.457031 11.164062 -95.929688 14.5 -100.453125 C 17.832031 -104.972656 21.535156 -108.710938 25.609375 -111.671875 C 29.679688 -114.640625 33.832031 -116.96875 38.0625 -118.65625 C 42.300781 -120.34375 46.3125 -121.535156 50.09375 -122.234375 C 53.882812 -122.929688 57.097656 -123.28125 59.734375 -123.28125 L 111.6875 -123.28125 C 113 -123.28125 114.679688 -123.257812 116.734375 -123.21875 C 118.796875 -123.175781 120.875 -122.847656 122.96875 -122.234375 C 125.070312 -121.617188 126.84375 -120.550781 128.28125 -119.03125 C 129.71875 -117.507812 130.4375 -115.265625 130.4375 -112.296875 C 130.4375 -109.421875 129.878906 -106.5625 128.765625 -103.71875 C 127.660156 -100.882812 126.347656 -97.84375 124.828125 -94.59375 C 123.304688 -91.34375 121.988281 -87.640625 120.875 -83.484375 C 119.757812 -79.328125 119.203125 -74.492188 119.203125 -68.984375 C 119.203125 -61.992188 119.53125 -55.703125 120.1875 -50.109375 C 120.851562 -44.515625 121.597656 -39.101562 122.421875 -33.875 C 123.242188 -28.644531 123.984375 -23.171875 124.640625 -17.453125 C 125.296875 -11.742188 125.625 -5.269531 125.625 1.96875 C 125.625 9.207031 124.328125 16.160156 121.734375 22.828125 C 119.148438 29.492188 115.117188 35.4375 109.640625 40.65625 C 104.171875 45.882812 97.15625 50.019531 88.59375 53.0625 C 80.039062 56.101562 69.84375 57.625 58 57.625 Z M 50.59375 -61.703125 C 50.59375 -52.484375 51.597656 -45.035156 53.609375 -39.359375 C 55.628906 -33.679688 58.285156 -30.84375 61.578125 -30.84375 C 64.867188 -30.84375 67.519531 -33.679688 69.53125 -39.359375 C 71.550781 -45.035156 72.5625 -52.484375 72.5625 -61.703125 C 72.5625 -70.992188 71.550781 -78.476562 69.53125 -84.15625 C 67.519531 -89.832031 64.867188 -92.671875 61.578125 -92.671875 C 58.285156 -92.671875 55.628906 -89.832031 53.609375 -84.15625 C 51.597656 -78.476562 50.59375 -70.992188 50.59375 -61.703125 Z M 50.59375 -61.703125 "/></g></g></g></g><g fill="#316428" fill-opacity="1"><g transform="translate(528.476728, 179.869798)"><g><path d="M 3.078125 -61.703125 C 3.078125 -69.515625 4.414062 -77.207031 7.09375 -84.78125 C 9.769531 -92.351562 13.84375 -99.179688 19.3125 -105.265625 C 24.78125 -111.347656 31.691406 -116.195312 40.046875 -119.8125 C 48.398438 -123.4375 58.289062 -125.25 69.71875 -125.25 C 76.0625 -125.25 82.148438 -124.445312 87.984375 -122.84375 C 93.828125 -121.238281 99.03125 -118.8125 103.59375 -115.5625 C 108.164062 -112.320312 111.785156 -108.273438 114.453125 -103.421875 C 117.128906 -98.566406 118.46875 -92.890625 118.46875 -86.390625 C 118.46875 -79.222656 117.375 -73.007812 115.1875 -67.75 C 113.007812 -62.488281 110.09375 -58.046875 106.4375 -54.421875 C 102.78125 -50.804688 98.726562 -47.820312 94.28125 -45.46875 C 89.84375 -43.125 85.359375 -41.253906 80.828125 -39.859375 C 76.546875 -38.546875 72.78125 -37.925781 69.53125 -38 C 66.289062 -38.082031 63.722656 -38.125 61.828125 -38.125 C 60.753906 -38.125 59.953125 -38.019531 59.421875 -37.8125 C 58.890625 -37.613281 58.625 -37.144531 58.625 -36.40625 C 58.625 -35.09375 59.34375 -34.023438 60.78125 -33.203125 C 62.21875 -32.378906 63.941406 -31.78125 65.953125 -31.40625 C 67.972656 -31.03125 69.804688 -30.84375 71.453125 -30.84375 C 75.890625 -30.84375 79.628906 -31.398438 82.671875 -32.515625 C 85.722656 -33.628906 88.398438 -34.882812 90.703125 -36.28125 C 93.003906 -37.675781 95.222656 -38.929688 97.359375 -40.046875 C 99.503906 -41.160156 101.851562 -41.71875 104.40625 -41.71875 C 107.195312 -41.71875 109.597656 -41.035156 111.609375 -39.671875 C 113.628906 -38.316406 115.273438 -36.585938 116.546875 -34.484375 C 117.828125 -32.390625 118.773438 -30.234375 119.390625 -28.015625 C 120.015625 -25.796875 120.328125 -23.78125 120.328125 -21.96875 C 120.328125 -18.257812 118.535156 -14.578125 114.953125 -10.921875 C 111.367188 -7.265625 105.851562 -4.222656 98.40625 -1.796875 C 90.96875 0.628906 81.40625 1.84375 69.71875 1.84375 C 58.863281 1.84375 49.300781 0.0546875 41.03125 -3.515625 C 32.757812 -7.097656 25.804688 -11.929688 20.171875 -18.015625 C 14.535156 -24.109375 10.273438 -30.9375 7.390625 -38.5 C 4.515625 -46.070312 3.078125 -53.804688 3.078125 -61.703125 Z M 50.71875 -74.78125 C 48.664062 -69.519531 47.925781 -65.265625 48.5 -62.015625 C 49.070312 -58.765625 50.878906 -57.140625 53.921875 -57.140625 C 57.054688 -57.140625 60.207031 -58.765625 63.375 -62.015625 C 66.539062 -65.265625 69.148438 -69.519531 71.203125 -74.78125 C 73.335938 -80.132812 74.097656 -84.429688 73.484375 -87.671875 C 72.867188 -90.921875 71 -92.546875 67.875 -92.546875 C 64.832031 -92.546875 61.742188 -90.921875 58.609375 -87.671875 C 55.484375 -84.429688 52.851562 -80.132812 50.71875 -74.78125 Z M 50.71875 -74.78125 "/></g></g></g><g fill="#316428" fill-opacity="1"><g transform="translate(649.407168, 179.869798)"><g><path d="M 42.328125 1.84375 C 34.671875 1.84375 27.738281 0.222656 21.53125 -3.015625 C 15.320312 -6.265625 10.382812 -10.992188 6.71875 -17.203125 C 3.0625 -23.421875 1.234375 -30.929688 1.234375 -39.734375 C 1.234375 -45.578125 1.972656 -51.171875 3.453125 -56.515625 C 4.929688 -61.867188 6.78125 -66.929688 9 -71.703125 C 11.226562 -76.472656 13.429688 -80.914062 15.609375 -85.03125 C 17.785156 -89.144531 19.613281 -92.90625 21.09375 -96.3125 C 22.582031 -99.726562 23.328125 -102.796875 23.328125 -105.515625 C 23.328125 -107.648438 23.035156 -109.085938 22.453125 -109.828125 C 21.878906 -110.566406 21.019531 -110.9375 19.875 -110.9375 C 18.800781 -110.9375 17.484375 -110.726562 15.921875 -110.3125 C 14.359375 -109.90625 12.671875 -109.703125 10.859375 -109.703125 C 7.398438 -109.703125 4.953125 -110.421875 3.515625 -111.859375 C 2.078125 -113.304688 1.359375 -115.304688 1.359375 -117.859375 C 1.359375 -120.984375 3.332031 -124.722656 7.28125 -129.078125 C 11.226562 -133.441406 16.328125 -138.503906 22.578125 -144.265625 C 26.285156 -147.710938 29.84375 -151.125 33.25 -154.5 C 36.664062 -157.875 39.710938 -160.671875 42.390625 -162.890625 C 45.066406 -165.117188 47.101562 -166.234375 48.5 -166.234375 C 50.144531 -166.234375 51.359375 -165.675781 52.140625 -164.5625 C 52.921875 -163.445312 53.453125 -162.066406 53.734375 -160.421875 C 54.023438 -158.773438 54.171875 -157.210938 54.171875 -155.734375 L 54.171875 -123.40625 L 59.234375 -123.40625 C 61.210938 -123.40625 62.816406 -122.785156 64.046875 -121.546875 C 65.285156 -120.316406 65.90625 -118.71875 65.90625 -116.75 L 65.90625 -116.375 C 65.90625 -114.394531 65.285156 -112.785156 64.046875 -111.546875 C 62.816406 -110.316406 61.210938 -109.703125 59.234375 -109.703125 L 54.171875 -109.703125 L 54.171875 -61.703125 C 54.171875 -54.128906 54.742188 -47.957031 55.890625 -43.1875 C 57.046875 -38.414062 58.488281 -34.609375 60.21875 -31.765625 C 61.945312 -28.929688 63.675781 -26.648438 65.40625 -24.921875 C 67.132812 -23.203125 68.570312 -21.660156 69.71875 -20.296875 C 70.875 -18.941406 71.453125 -17.273438 71.453125 -15.296875 C 71.453125 -12.585938 70.566406 -10.160156 68.796875 -8.015625 C 67.023438 -5.878906 64.695312 -4.070312 61.8125 -2.59375 C 58.9375 -1.113281 55.789062 -0.00390625 52.375 0.734375 C 48.96875 1.472656 45.617188 1.84375 42.328125 1.84375 Z M 42.328125 1.84375 "/></g></g></g></g></g></g><g clip-path="url(#c4bd73c3c8)"><g clip-path="url(#661fcc9eab)"><g transform="matrix(1, 0, 0, 1, 308, 43)"><g clip-path="url(#deffe729c1)"><g clip-path="url(#cd23bd0d06)"><g clip-path="url(#55e49f01cf)"><path fill="#ffffff" d="M 0.242188 0.890625 L 48.625 0.890625 L 48.625 49.269531 L 0.242188 49.269531 Z M 0.242188 0.890625 " fill-opacity="1" fill-rule="nonzero"/></g></g></g></g></g></g><g clip-path="url(#37ab1b8351)"><g clip-path="url(#cdb2116f82)"><g clip-path="url(#bd5affba97)"><g transform="matrix(1, 0, 0, 1, 346, 69)"><g clip-path="url(#73ac986e4c)"><g clip-path="url(#fb32e8ef6b)"><g clip-path="url(#9fbe1c9046)"><g clip-path="url(#63a73701dc)"><path fill="#ffffff" d="M -6.121094 12.78125 L 22.382812 -5.789062 L 40.949219 22.710938 L 12.449219 41.28125 Z M -6.121094 12.78125 " fill-opacity="1" fill-rule="nonzero"/></g></g></g></g></g></g></g></g><g clip-path="url(#4130142546)"><g clip-path="url(#611b3b0344)"><g transform="matrix(1, 0, 0, 1, 110, 0.000000000000113687)"><g clip-path="url(#9ec51b328f)"><g clip-path="url(#56054754ec)"><g clip-path="url(#d9376d5fb1)"><path fill="#ffffff" d="M 0.203125 0.378906 L 89.0625 0.378906 L 89.0625 68.078125 L 0.203125 68.078125 Z M 0.203125 0.378906 " fill-opacity="1" fill-rule="nonzero"/></g></g></g></g></g></g><g clip-path="url(#57cfda6c9f)"><path fill="#f27141" d="M 155.019531 60.910156 C 155.128906 60.375 155.242188 59.816406 155.320312 59.257812 C 155.097656 59.269531 154.894531 59.292969 154.683594 59.292969 C 150.046875 59.292969 146.273438 55.515625 146.273438 50.871094 C 146.273438 50.546875 146.292969 50.199219 146.339844 49.886719 C 141.03125 49.429688 136.878906 44.972656 136.878906 39.53125 C 136.878906 37.933594 137.234375 36.425781 137.882812 35.085938 C 134.957031 33.777344 132.910156 30.832031 132.910156 27.421875 C 132.910156 26.070312 133.214844 24.796875 133.792969 23.679688 C 132.675781 23.300781 131.539062 22.976562 130.375 22.71875 C 130.386719 22.664062 130.386719 22.609375 130.386719 22.554688 C 130.410156 21.996094 130.039062 21.515625 129.503906 21.402344 C 127.539062 21 125.503906 20.800781 123.292969 20.800781 C 117.796875 20.800781 112.335938 22.160156 107.511719 24.742188 C 107.019531 25.011719 106.796875 25.589844 106.984375 26.117188 C 107.007812 26.171875 107.03125 26.226562 107.050781 26.285156 C 97.390625 31.867188 90.898438 42.324219 90.898438 54.308594 C 90.898438 72.207031 105.398438 86.703125 123.292969 86.703125 C 138.945312 86.703125 151.96875 75.632812 155.019531 60.910156 Z M 155.019531 60.910156 " fill-opacity="1" fill-rule="nonzero"/></g><g clip-path="url(#8c68ae61cb)"><path fill="#25632d" d="M 375.222656 191.347656 C 375.222656 191.347656 378.21875 205.960938 400.191406 194.839844 C 400.191406 194.839844 409.738281 187.816406 396.886719 178.515625 C 396.886719 178.515625 379.796875 154.164062 375.222656 191.347656 Z M 375.222656 191.347656 " fill-opacity="1" fill-rule="nonzero"/></g><path fill="#25632d" d="M 416.609375 184.394531 C 416.609375 184.394531 418.074219 191.546875 428.84375 186.101562 C 428.84375 186.101562 433.527344 182.65625 427.234375 178.097656 C 427.234375 178.097656 418.855469 166.171875 416.609375 184.394531 Z M 416.609375 184.394531 " fill-opacity="1" fill-rule="nonzero"/><g clip-path="url(#e1b61a621e)"><path fill="#25632d" d="M 410.789062 209.117188 C 410.789062 209.117188 386.207031 217.105469 398.023438 225.765625 C 409.820312 234.414062 415.757812 237.46875 415.757812 237.46875 C 415.757812 237.46875 435.441406 210.082031 423.105469 209.601562 C 410.789062 209.117188 410.789062 209.117188 410.789062 209.117188 Z M 410.789062 209.117188 " fill-opacity="1" fill-rule="nonzero"/></g></g></g></svg>